{
  "accessors": [
    {
      "bufferView": 3,
      "componentType": 5126,
      "count": 63724,
      "max": [
        0.8409228324890137,
        2.566593647003174,
        0.583634614944458
      ],
      "min": [
        -0.7945430278778076,
        0.04044294357299805,
        -0.6485803723335266
      ],
      "type": "VEC3"
    },
    {
      "bufferView": 3,
      "byteOffset": 764688,
      "componentType": 5126,
      "count": 63724,
      "max": [
        0.9999414086341858,
        0.9997255206108093,
        0.9998137950897217
      ],
      "min": [
        -0.9999951124191284,
        -1.0,
        -0.9997227787971497
      ],
      "type": "VEC3"
    },
    {
      "bufferView": 2,
      "componentType": 5126,
      "count": 63724,
      "max": [
        0.8750006556510925,
        1.0000005960464478
      ],
      "min": [
        0.12500005960464478,
        0.0
      ],
      "type": "VEC2"
    },
    {
      "bufferView": 1,
      "componentType": 5125,
      "count": 265728,
      "type": "SCALAR"
    },
    {
      "bufferView": 3,
      "byteOffset": 1529376,
      "componentType": 5126,
      "count": 2963,
      "max": [
        0.5520883202552795,
        2.249225616455078,
        0.604426383972168
      ],
      "min": [
        -0.5117416977882385,
        1.6145867109298706,
        0.24658779799938202
      ],
      "type": "VEC3"
    },
    {
      "bufferView": 3,
      "byteOffset": 1564932,
      "componentType": 5126,
      "count": 2963,
      "max": [
        0.9405308961868286,
        0.9844265580177307,
        0.999583899974823
      ],
      "min": [
        -0.9092711210250854,
        -0.7016690373420715,
        -0.2885269522666931
      ],
      "type": "VEC3"
    },
    {
      "bufferView": 2,
      "byteOffset": 509792,
      "componentType": 5126,
      "count": 2963,
      "max": [
        0.5980424284934998,
        1.0000007152557373
      ],
      "min": [
        0.495996356010437,
        0.0
      ],
      "type": "VEC2"
    },
    {
      "bufferView": 1,
      "byteOffset": 1062912,
      "componentType": 5125,
      "count": 12288,
      "type": "SCALAR"
    },
    {
      "bufferView": 3,
      "byteOffset": 1600488,
      "componentType": 5126,
      "count": 1660,
      "max": [
        0.5949346423149109,
        2.2807259559631348,
        0.548738420009613
      ],
      "min": [
        -0.5497622489929199,
        1.5832884311676025,
        0.2110486477613449
      ],
      "type": "VEC3"
    },
    {
      "bufferView": 3,
      "byteOffset": 1620408,
      "componentType": 5126,
      "count": 1660,
      "max": [
        0.9405308961868286,
        0.9844265580177307,
        0.9994350075721741
      ],
      "min": [
        -0.9092711210250854,
        -0.7016690373420715,
        -0.35389742255210876
      ],
      "type": "VEC3"
    },
    {
      "bufferView": 2,
      "byteOffset": 533496,
      "componentType": 5126,
      "count": 1660,
      "max": [
        0.603590726852417,
        1.0000007152557373
      ],
      "min": [
        0.4916781783103943,
        0.0
      ],
      "type": "VEC2"
    },
    {
      "bufferView": 1,
      "byteOffset": 1112064,
      "componentType": 5125,
      "count": 6144,
      "type": "SCALAR"
    },
    {
      "bufferView": 3,
      "byteOffset": 1640328,
      "componentType": 5126,
      "count": 2128,
      "max": [
        0.6597208976745605,
        2.270510196685791,
        -0.3964177370071411
      ],
      "min": [
        -0.5766100287437439,
        0.9731347560882568,
        -0.6680915951728821
      ],
      "type": "VEC3"
    },
    {
      "bufferView": 3,
      "byteOffset": 1665864,
      "componentType": 5126,
      "count": 2128,
      "max": [
        0.9832021594047546,
        0.9572461247444153,
        -0.18155530095100403
      ],
      "min": [
        -0.9566003680229187,
        -0.9533754587173462,
        -0.9994396567344666
      ],
      "type": "VEC3"
    },
    {
      "bufferView": 2,
      "byteOffset": 546776,
      "componentType": 5126,
      "count": 2128,
      "max": [
        0.6280368566513062,
        0.7795567512512207
      ],
      "min": [
        0.43357864022254944,
        0.6354616284370422
      ],
      "type": "VEC2"
    },
    {
      "bufferView": 1,
      "byteOffset": 1136640,
      "componentType": 5125,
      "count": 8448,
      "type": "SCALAR"
    },
    {
      "bufferView": 3,
      "byteOffset": 1691400,
      "componentType": 5126,
      "count": 6658,
      "max": [
        0.6238019466400146,
        2.2205772399902344,
        -0.45771321654319763
      ],
      "min": [
        -0.5337055325508118,
        1.002888560295105,
        -0.899867057800293
      ],
      "type": "VEC3"
    },
    {
      "bufferView": 3,
      "byteOffset": 1771296,
      "componentType": 5126,
      "count": 6658,
      "max": [
        0.9867863655090332,
        0.9908018708229065,
        -0.05734482780098915
      ],
      "min": [
        -0.9700977802276611,
        -0.964309811592102,
        -0.9999145865440369
      ],
      "type": "VEC3"
    },
    {
      "bufferView": 2,
      "byteOffset": 563800,
      "componentType": 5126,
      "count": 6658,
      "max": [
        0.623211145401001,
        0.7738116979598999
      ],
      "min": [
        0.4365479648113251,
        0.6250001192092896
      ],
      "type": "VEC2"
    },
    {
      "bufferView": 1,
      "byteOffset": 1170432,
      "componentType": 5125,
      "count": 27648,
      "type": "SCALAR"
    },
    {
      "bufferView": 5,
      "componentType": 5126,
      "count": 12,
      "max": [
        1.0,
        0.5881642699241638,
        0.6068530082702637,
        0.0,
        0.5881643295288086,
        1.0,
        0.1739627569913864,
        0.0,
        0.6068528890609741,
        0.0,
        1.0,
        0.0,
        0.465561181306839,
        0.5195342302322388,
        0.3492758870124817,
        1.0
      ],
      "min": [
        4.581611534604235e-08,
        -0.5881642699241638,
        -0.6068530082702637,
        0.0,
        -0.5881643295288086,
        -0.6068530082702637,
        0.0,
        0.0,
        -0.6068528890609741,
        -0.1739627569913864,
        -6.320923517932897e-08,
        0.0,
        -0.474357932806015,
        -1.1667661666870117,
        -0.5770736336708069,
        1.0
      ],
      "type": "MAT4"
    },
    {
      "bufferView": 0,
      "componentType": 5123,
      "count": 63724,
      "type": "VEC4"
    },
    {
      "bufferView": 4,
      "componentType": 5126,
      "count": 63724,
      "max": [
        1.0,
        0.4999020993709564,
        0.3137754797935486,
        0.24106088280677795
      ],
      "min": [
        0.25668513774871826,
        0.0,
        0.0,
        0.0
      ],
      "type": "VEC4"
    },
    {
      "bufferView": 0,
      "byteOffset": 509792,
      "componentType": 5123,
      "count": 2963,
      "type": "VEC4"
    },
    {
      "bufferView": 4,
      "byteOffset": 1019584,
      "componentType": 5126,
      "count": 2963,
      "max": [
        1.0,
        0.3893730640411377,
        0.24197210371494293,
        0.0877203494310379
      ],
      "min": [
        0.47797149419784546,
        0.0,
        0.0,
        0.0
      ],
      "type": "VEC4"
    },
    {
      "bufferView": 0,
      "byteOffset": 533496,
      "componentType": 5123,
      "count": 1660,
      "type": "VEC4"
    },
    {
      "bufferView": 4,
      "byteOffset": 1066992,
      "componentType": 5126,
      "count": 1660,
      "max": [
        1.0,
        0.4982161521911621,
        0.2918597161769867,
        0.10653667151927948
      ],
      "min": [
        0.37187549471855164,
        0.0,
        0.0,
        0.0
      ],
      "type": "VEC4"
    },
    {
      "bufferView": 0,
      "byteOffset": 546776,
      "componentType": 5123,
      "count": 2128,
      "type": "VEC4"
    },
    {
      "bufferView": 4,
      "byteOffset": 1093552,
      "componentType": 5126,
      "count": 2128,
      "max": [
        0.9494490623474121,
        0.43180450797080994,
        0.23412197828292847,
        0.10043380409479141
      ],
      "min": [
        0.40104445815086365,
        0.02767082490026951,
        0.0,
        0.0
      ],
      "type": "VEC4"
    },
    {
      "bufferView": 0,
      "byteOffset": 563800,
      "componentType": 5123,
      "count": 6658,
      "type": "VEC4"
    },
    {
      "bufferView": 4,
      "byteOffset": 1127600,
      "componentType": 5126,
      "count": 6658,
      "max": [
        1.0,
        0.3819345533847809,
        0.18113146722316742,
        0.08568583428859711
      ],
      "min": [
        0.4652642607688904,
        0.0,
        0.0,
        0.0
      ],
      "type": "VEC4"
    }
  ],
  "asset": {
    "extras": {
      "author": "ArtyomChanglyan (https://sketchfab.com/artyomchanglyan7)",
      "license": "CC-BY-4.0 (http://creativecommons.org/licenses/by/4.0/)",
      "source": "https://sketchfab.com/3d-models/amongus-f997d83ec898499685bf79aa6df5f514",
      "title": "Amongus"
    },
    "generator": "Sketchfab-11.1.0",
    "version": "2.0"
  },
  "bufferViews": [
    {
      "buffer": 0,
      "byteLength": 617064,
      "byteStride": 8,
      "name": "shortBufferViews",
      "target": 34962
    },
    {
      "buffer": 0,
      "byteLength": 1281024,
      "byteOffset": 617064,
      "name": "floatBufferViews",
      "target": 34963
    },
    {
      "buffer": 0,
      "byteLength": 617064,
      "byteOffset": 1898088,
      "byteStride": 8,
      "name": "floatBufferViews",
      "target": 34962
    },
    {
      "buffer": 0,
      "byteLength": 1851192,
      "byteOffset": 2515152,
      "byteStride": 12,
      "name": "floatBufferViews",
      "target": 34962
    },
    {
      "buffer": 0,
      "byteLength": 1234128,
      "byteOffset": 4366344,
      "byteStride": 16,
      "name": "floatBufferViews",
      "target": 34962
    },
    {
      "buffer": 0,
      "byteLength": 768,
      "byteOffset": 5600472,
      "byteStride": 64,
      "name": "floatBufferViews"
    }
  ],
  "buffers": [
    {
      "byteLength": 5601240,
      "uri": "scene.bin"
    }
  ],
  "materials": [
    {
      "doubleSided": true,
      "name": "Material",
      "pbrMetallicRoughness": {
        "baseColorFactor": [
          0.0,
          0.799103,
          0.715694,
          1.0
        ],
        "metallicFactor": 0.776923,
        "roughnessFactor": 0.3
      }
    },
    {
      "doubleSided": true,
      "name": "Material.002",
      "pbrMetallicRoughness": {
        "baseColorFactor": [
          0.173486,
          0.229903,
          0.457532,
          1.0
        ],
        "roughnessFactor": 0.0923077
      }
    },
    {
      "doubleSided": true,
      "name": "Material.003",
      "pbrMetallicRoughness": {
        "baseColorFactor": [
          0.0,
          0.0,
          0.0,
          1.0
        ],
        "roughnessFactor": 0.0
      }
    },
    {
      "doubleSided": true,
      "name": "Material.001",
      "pbrMetallicRoughness": {
        "baseColorFactor": [
          0.0,
          0.0,
          0.0,
          1.0
        ],
        "metallicFactor": 0.776923,
        "roughnessFactor": 0.3
      }
    },
    {
      "doubleSided": true,
      "name": "Material.004",
      "pbrMetallicRoughness": {
        "baseColorFactor": [
          0.0,
          0.497735,
          0.570471,
          1.0
        ],
        "roughnessFactor": 0.153846
      }
    }
  ],
  "meshes": [
    {
      "name": "Object_0",
      "primitives": [
        {
          "attributes": {
            "JOINTS_0": 21,
            "NORMAL": 1,
            "POSITION": 0,
            "TEXCOORD_0": 2,
            "WEIGHTS_0": 22
          },
          "indices": 3,
          "material": 0,
          "mode": 4
        }
      ]
    },
    {
      "name": "Object_1",
      "primitives": [
        {
          "attributes": {
            "JOINTS_0": 23,
            "NORMAL": 5,
            "POSITION": 4,
            "TEXCOORD_0": 6,
            "WEIGHTS_0": 24
          },
          "indices": 7,
          "material": 1,
          "mode": 4
        }
      ]
    },
    {
      "name": "Object_2",
      "primitives": [
        {
          "attributes": {
            "JOINTS_0": 25,
            "NORMAL": 9,
            "POSITION": 8,
            "TEXCOORD_0": 10,
            "WEIGHTS_0": 26
          },
          "indices": 11,
          "material": 2,
          "mode": 4
        }
      ]
    },
    {
      "name": "Object_3",
      "primitives": [
        {
          "attributes": {
            "JOINTS_0": 27,
            "NORMAL": 13,
            "POSITION": 12,
            "TEXCOORD_0": 14,
            "WEIGHTS_0": 28
          },
          "indices": 15,
          "material": 3,
          "mode": 4
        }
      ]
    },
    {
      "name": "Object_4",
      "primitives": [
        {
          "attributes": {
            "JOINTS_0": 29,
            "NORMAL": 17,
            "POSITION": 16,
            "TEXCOORD_0": 18,
            "WEIGHTS_0": 30
          },
          "indices": 19,
          "material": 4,
          "mode": 4
        }
      ]
    }
  ],
  "nodes": [
    {
      "children": [
        1
      ],
      "matrix": [
        1.0,
        0.0,
        0.0,
        0.0,
        0.0,
        2.220446049250313e-16,
        -1.0,
        0.0,
        0.0,
        1.0,
        2.220446049250313e-16,
        0.0,
        0.0,
        0.0,
        0.0,
        1.0
      ],
      "name": "Sketchfab_model"
    },
    {
      "children": [
        2
      ],
      "name": "root"
    },
    {
      "children": [
        3
      ],
      "matrix": [
        1.0,
        0.0,
        0.0,
        0.0,
        0.0,
        2.220446049250313e-16,
        1.0,
        0.0,
        0.0,
        -1.0,
        2.220446049250313e-16,
        0.0,
        0.0,
        0.0,
        0.0,
        1.0
      ],
      "name": "GLTF_SceneRootNode"
    },
    {
      "children": [
        4
      ],
      "matrix": [
        1.6478456258773804,
        0.0,
        0.0,
        0.0,
        0.0,
        1.6478456258773804,
        0.0,
        0.0,
        0.0,
        0.0,
        1.6478456258773804,
        0.0,
        0.029431678354740143,
        0.8240869641304016,
        0.0,
        1.0
      ],
      "name": "Armature_14"
    },
    {
      "children": [
        5,
        7,
        8,
        9,
        10,
        11,
        6
      ],
      "name": "GLTF_created_0"
    },
    {
      "children": [
        12,
        17,
        20
      ],
      "name": "GLTF_created_0_rootJoint"
    },
    {
      "name": "Cube_13"
    },
    {
      "mesh": 0,
      "name": "Object_7",
      "skin": 0
    },
    {
      "mesh": 1,
      "name": "Object_8",
      "skin": 0
    },
    {
      "mesh": 2,
      "name": "Object_9",
      "skin": 0
    },
    {
      "mesh": 3,
      "name": "Object_10",
      "skin": 0
    },
    {
      "mesh": 4,
      "name": "Object_11",
      "skin": 0
    },
    {
      "children": [
        13
      ],
      "name": "Bone.003_6"
    },
    {
      "children": [
        14,
        16
      ],
      "name": "Bone.002_5",
      "translation": [
        0.0,
        0.3333333134651184,
        0.0
      ]
    },
    {
      "children": [
        15
      ],
      "name": "Bone.001_3",
      "translation": [
        0.0,
        0.3333333134651184,
        0.0
      ]
    },
    {
      "name": "Bone.004_2",
      "rotation": [
        -0.14485983550548553,
        0.0,
        0.0,
        0.9894521832466125
      ],
      "translation": [
        3.377084957372678e-17,
        -0.1470714807510376,
        0.29723888635635376
      ]
    },
    {
      "name": "Bone.005_4",
      "rotation": [
        -0.03850828856229782,
        1.1912086961274326e-07,
        -4.590545721327999e-09,
        0.999258279800415
      ],
      "scale": [
        1.0,
        0.9999999403953552,
        1.0
      ],
      "translation": [
        -5.307736335754204e-18,
        -0.13514891266822815,
        -0.3510189950466156
      ]
    },
    {
      "children": [
        18
      ],
      "name": "gro.l_9",
      "rotation": [
        -1.5101524297733704e-07,
        -1.1326145710199853e-07,
        -0.6138975024223328,
        0.7893857955932617
      ],
      "scale": [
        0.9999999403953552,
        0.9999999403953552,
        1.0
      ],
      "translation": [
        0.07017793506383896,
        0.0026238299906253815,
        1.2781235625425325e-08
      ]
    },
    {
      "children": [
        19
      ],
      "name": "upl.l_8",
      "rotation": [
        0.558180034160614,
        0.4340912103652954,
        -0.5581800937652588,
        0.43409091234207153
      ],
      "scale": [
        1.0000001192092896,
        1.0000001192092896,
        1.0
      ],
      "translation": [
        0.04803915321826935,
        0.2573319673538208,
        -6.51178879707004e-08
      ]
    },
    {
      "name": "lowl.l_7",
      "rotation": [
        -6.4843319786973136e-15,
        -3.093242284535336e-08,
        2.4074457982692365e-09,
        1.0
      ],
      "translation": [
        -7.438494264988549e-15,
        0.2298271507024765,
        3.4416913763379853e-15
      ]
    },
    {
      "children": [
        21
      ],
      "name": "gro.r_12",
      "rotation": [
        -1.5101524297733704e-07,
        1.1326145710199853e-07,
        0.6138975024223328,
        0.7893857955932617
      ],
      "scale": [
        0.9999999403953552,
        0.9999999403953552,
        1.0
      ],
      "translation": [
        -0.07017793506383896,
        0.0026238299906253815,
        1.2781235625425325e-08
      ]
    },
    {
      "children": [
        22
      ],
      "name": "upl.r_11",
      "rotation": [
        0.558180034160614,
        -0.4340912103652954,
        0.5581800937652588,
        0.43409091234207153
      ],
      "scale": [
        1.0000001192092896,
        1.0000001192092896,
        1.0
      ],
      "translation": [
        -0.04803915321826935,
        0.2573319673538208,
        -6.51178879707004e-08
      ]
    },
    {
      "name": "lowl.r_10",
      "rotation": [
        -6.4843319786973136e-15,
        3.093242284535336e-08,
        -2.4074457982692365e-09,
        1.0
      ],
      "translation": [
        7.438494264988549e-15,
        0.2298271507024765,
        3.4416913763379853e-15
      ]
    }
  ],
  "scene": 0,
  "scenes": [
    {
      "name": "Sketchfab_Scene",
      "nodes": [
        0
      ]
    }
  ],
  "skins": [
    {
      "inverseBindMatrices": 20,
      "joints": [
        5,
        12,
        13,
        14,
        15,
        16,
        17,
        18,
        19,
        20,
        21,
        22
      ],
      "skeleton": 5
    }
  ]
}
